{"asset":{"version":"2.0","generator":"Blockbench 3.8.4 glTF exporter"},"scenes":[{"nodes":[1,16],"name":"blockbench_export"}],"scene":0,"nodes":[{"name":"ea78e179-9bad-31c5-2228-19edddc94c5b","mesh":0},{"name":"bone","children":[0]},{"name":"6c4c21a3-db09-b204-1625-43b94a6a2e25","mesh":1},{"translation":[-0.125,-1.06875,0.03125],"name":"28b9cbdb-20e0-2d36-7bf0-adaf5919224d","mesh":2},{"translation":[-0.125,-1.06875,0.03125],"name":"4e46a58f-1923-3148-20da-542ee6dcc9f0","mesh":3},{"translation":[-0.125,-1.06875,0.03125],"name":"645bb145-3844-6ff4-a9fc-9e85a6cac7dc","mesh":4},{"translation":[-0.125,-1.06875,0.03125],"name":"08ca7a45-0d23-2cfe-91d5-c5b26c00a324","mesh":5},{"translation":[0,-0.4375,0],"name":"1076a2cd-2f96-5a56-3707-e136fc3e6ccf","mesh":6},{"rotation":[-0.3826834323650898,0,0,0.9238795325112867],"translation":[-0.125,-0.6312500000000001,0.03125],"name":"upperBodyPart3","children":[7]},{"rotation":[-0.27982901403099203,0,0,0.9600498543859287],"translation":[0.125,1.06875,-0.03125],"name":"upperBodyPart2","children":[3,4,5,6,8]},{"translation":[0,-1.25,0],"name":"56564aee-76e6-9d4d-0620-dc47207376e9","mesh":7},{"translation":[0,1.25,0],"name":"head1","children":[10]},{"translation":[-0.5625,-1.125,0.0625],"name":"d9f87eed-59a6-346d-7a91-a1837febb808","mesh":8},{"translation":[0.5625,1.125,-0.0625],"name":"head2","children":[12]},{"translation":[0.5625,-1.125,0.0625],"name":"c7234aca-c7da-26b5-6b20-eab672e60039","mesh":9},{"translation":[-0.5625,1.125,-0.0625],"name":"head3","children":[14]},{"name":"upperBodyPart1","children":[2,9,11,13,15]}],"bufferViews":[{"buffer":0,"byteOffset":0,"byteLength":432,"target":34962,"byteStride":12},{"buffer":0,"byteOffset":432,"byteLength":432,"target":34962,"byteStride":12},{"buffer":0,"byteOffset":864,"byteLength":288,"target":34962,"byteStride":8},{"buffer":0,"byteOffset":1152,"byteLength":432,"target":34962,"byteStride":12},{"buffer":0,"byteOffset":1584,"byteLength":432,"target":34962,"byteStride":12},{"buffer":0,"byteOffset":2016,"byteLength":288,"target":34962,"byteStride":8},{"buffer":0,"byteOffset":2304,"byteLength":432,"target":34962,"byteStride":12},{"buffer":0,"byteOffset":2736,"byteLength":432,"target":34962,"byteStride":12},{"buffer":0,"byteOffset":3168,"byteLength":288,"target":34962,"byteStride":8},{"buffer":0,"byteOffset":3456,"byteLength":432,"target":34962,"byteStride":12},{"buffer":0,"byteOffset":3888,"byteLength":432,"target":34962,"byteStride":12},{"buffer":0,"byteOffset":4320,"byteLength":288,"target":34962,"byteStride":8},{"buffer":0,"byteOffset":4608,"byteLength":432,"target":34962,"byteStride":12},{"buffer":0,"byteOffset":5040,"byteLength":432,"target":34962,"byteStride":12},{"buffer":0,"byteOffset":5472,"byteLength":288,"target":34962,"byteStride":8},{"buffer":0,"byteOffset":5760,"byteLength":432,"target":34962,"byteStride":12},{"buffer":0,"byteOffset":6192,"byteLength":432,"target":34962,"byteStride":12},{"buffer":0,"byteOffset":6624,"byteLength":288,"target":34962,"byteStride":8},{"buffer":0,"byteOffset":6912,"byteLength":432,"target":34962,"byteStride":12},{"buffer":0,"byteOffset":7344,"byteLength":432,"target":34962,"byteStride":12},{"buffer":0,"byteOffset":7776,"byteLength":288,"target":34962,"byteStride":8},{"buffer":0,"byteOffset":8064,"byteLength":432,"target":34962,"byteStride":12},{"buffer":0,"byteOffset":8496,"byteLength":432,"target":34962,"byteStride":12},{"buffer":0,"byteOffset":8928,"byteLength":288,"target":34962,"byteStride":8},{"buffer":0,"byteOffset":9216,"byteLength":432,"target":34962,"byteStride":12},{"buffer":0,"byteOffset":9648,"byteLength":432,"target":34962,"byteStride":12},{"buffer":0,"byteOffset":10080,"byteLength":288,"target":34962,"byteStride":8},{"buffer":0,"byteOffset":10368,"byteLength":432,"target":34962,"byteStride":12},{"buffer":0,"byteOffset":10800,"byteLength":432,"target":34962,"byteStride":12},{"buffer":0,"byteOffset":11232,"byteLength":288,"target":34962,"byteStride":8},{"buffer":0,"byteOffset":11520,"byteLength":28},{"buffer":0,"byteOffset":11548,"byteLength":84},{"buffer":0,"byteOffset":11632,"byteLength":28},{"buffer":0,"byteOffset":11660,"byteLength":112},{"buffer":0,"byteOffset":11772,"byteLength":12},{"buffer":0,"byteOffset":11784,"byteLength":36},{"buffer":0,"byteOffset":11820,"byteLength":20},{"buffer":0,"byteOffset":11840,"byteLength":80},{"buffer":0,"byteOffset":11920,"byteLength":16},{"buffer":0,"byteOffset":11936,"byteLength":64},{"buffer":0,"byteOffset":12000,"byteLength":16},{"buffer":0,"byteOffset":12016,"byteLength":64},{"buffer":0,"byteOffset":12080,"byteLength":4},{"buffer":0,"byteOffset":12084,"byteLength":12},{"buffer":0,"byteOffset":12096,"byteLength":44},{"buffer":0,"byteOffset":12140,"byteLength":132},{"buffer":0,"byteOffset":12272,"byteLength":44},{"buffer":0,"byteOffset":12316,"byteLength":176},{"buffer":0,"byteOffset":12492,"byteLength":20},{"buffer":0,"byteOffset":12512,"byteLength":60},{"buffer":0,"byteOffset":12572,"byteLength":8},{"buffer":0,"byteOffset":12580,"byteLength":32},{"buffer":0,"byteOffset":12612,"byteLength":8},{"buffer":0,"byteOffset":12620,"byteLength":32},{"buffer":0,"byteOffset":12652,"byteLength":20},{"buffer":0,"byteOffset":12672,"byteLength":60},{"buffer":0,"byteOffset":12732,"byteLength":4},{"buffer":0,"byteOffset":12736,"byteLength":12}],"buffers":[{"byteLength":12748,"uri":"data:application/octet-stream;base64,"}],"accessors":[{"bufferView":0,"componentType":5126,"count":36,"max":[0.5,0.5,0.5],"min":[0,0,0],"type":"VEC3"},{"bufferView":1,"componentType":5126,"count":36,"max":[1,1,1],"min":[-1,-1,-1],"type":"VEC3"},{"bufferView":2,"componentType":5126,"count":36,"max":[0.499755859375,0.452880859375],"min":[0.000244140625,0.203369140625],"type":"VEC2"},{"bufferView":3,"componentType":5126,"count":36,"max":[0.625,1.256250023841858,0.15625],"min":[-0.625,1.068750023841858,-0.03125],"type":"VEC3"},{"bufferView":4,"componentType":5126,"count":36,"max":[1,1,1],"min":[-1,-1,-1],"type":"VEC3"},{"bufferView":5,"componentType":5126,"count":36,"max":[0.718505859375,0.749755859375],"min":[0.000244140625,0.656494140625],"type":"VEC2"},{"bufferView":6,"componentType":5126,"count":36,"max":[0.125,1.068750023841858,0.15625],"min":[-0.0625,0.4437499940395355,-0.03125],"type":"VEC3"},{"bufferView":7,"componentType":5126,"count":36,"max":[1,1,1],"min":[-1,-1,-1],"type":"VEC3"},{"bufferView":8,"componentType":5126,"count":36,"max":[0.187255859375,0.656005859375],"min":[0.000244140625,0.453369140625],"type":"VEC2"},{"bufferView":9,"componentType":5126,"count":36,"max":[0.375,0.9750000238418579,0.125],"min":[-0.3125,0.8500000238418579,0],"type":"VEC3"},{"bufferView":10,"componentType":5126,"count":36,"max":[1,1,1],"min":[-1,-1,-1],"type":"VEC3"},{"bufferView":11,"componentType":5126,"count":36,"max":[0.781005859375,0.656005859375],"min":[0.375244140625,0.593994140625],"type":"VEC2"},{"bufferView":12,"componentType":5126,"count":36,"max":[0.375,0.8187500238418579,0.125],"min":[-0.3125,0.6937500238418579,0],"type":"VEC3"},{"bufferView":13,"componentType":5126,"count":36,"max":[1,1,1],"min":[-1,-1,-1],"type":"VEC3"},{"bufferView":14,"componentType":5126,"count":36,"max":[0.781005859375,0.656005859375],"min":[0.375244140625,0.593994140625],"type":"VEC2"},{"bufferView":15,"componentType":5126,"count":36,"max":[0.375,0.6625000238418579,0.125],"min":[-0.3125,0.5375000238418579,0],"type":"VEC3"},{"bufferView":16,"componentType":5126,"count":36,"max":[1,1,1],"min":[-1,-1,-1],"type":"VEC3"},{"bufferView":17,"componentType":5126,"count":36,"max":[0.781005859375,0.656005859375],"min":[0.375244140625,0.593994140625],"type":"VEC2"},{"bufferView":18,"componentType":5126,"count":36,"max":[0.125,0.4375,0.1875],"min":[-0.0625,0.0625,0],"type":"VEC3"},{"bufferView":19,"componentType":5126,"count":36,"max":[1,1,1],"min":[-1,-1,-1],"type":"VEC3"},{"bufferView":20,"componentType":5126,"count":36,"max":[0.374755859375,0.656005859375],"min":[0.187744140625,0.515869140625],"type":"VEC2"},{"bufferView":21,"componentType":5126,"count":36,"max":[0.25,1.75,0.25],"min":[-0.25,1.25,-0.25],"type":"VEC3"},{"bufferView":22,"componentType":5126,"count":36,"max":[1,1,1],"min":[-1,-1,-1],"type":"VEC3"},{"bufferView":23,"componentType":5126,"count":36,"max":[0.499755859375,0.999755859375],"min":[0.000244140625,0.750244140625],"type":"VEC2"},{"bufferView":24,"componentType":5126,"count":36,"max":[0.75,1.5,0.125],"min":[0.375,1.125,-0.25],"type":"VEC3"},{"bufferView":25,"componentType":5126,"count":36,"max":[1,1,1],"min":[-1,-1,-1],"type":"VEC3"},{"bufferView":26,"componentType":5126,"count":36,"max":[0.874755859375,0.999755859375],"min":[0.500244140625,0.812744140625],"type":"VEC2"},{"bufferView":27,"componentType":5126,"count":36,"max":[-0.375,1.5,0.125],"min":[-0.75,1.125,-0.25],"type":"VEC3"},{"bufferView":28,"componentType":5126,"count":36,"max":[1,1,1],"min":[-1,-1,-1],"type":"VEC3"},{"bufferView":29,"componentType":5126,"count":36,"max":[0.874755859375,0.999755859375],"min":[0.500244140625,0.812744140625],"type":"VEC2"},{"bufferView":30,"componentType":5126,"count":7,"max":[3.119999885559082],"min":[0],"type":"SCALAR"},{"bufferView":31,"componentType":5126,"count":7,"max":[0,0.1875,0],"min":[0,0,0],"type":"VEC3"},{"bufferView":32,"componentType":5126,"count":7,"max":[3.119999885559082],"min":[0],"type":"SCALAR"},{"bufferView":33,"componentType":5126,"count":7,"max":[-0.2798290252685547,0,0,0.9600498676300049],"min":[-0.44228869676589966,0,0,0.8968727588653564],"type":"VEC4"},{"bufferView":34,"componentType":5126,"count":3,"max":[2.5999999046325684],"min":[0.5199999809265137],"type":"SCALAR"},{"bufferView":35,"componentType":5126,"count":3,"max":[0.125,1.068750023841858,-0.03125],"min":[0.125,1.068750023841858,-0.03125],"type":"VEC3"},{"bufferView":36,"componentType":5126,"count":5,"max":[2.5999999046325684],"min":[0],"type":"SCALAR"},{"bufferView":37,"componentType":5126,"count":5,"max":[0,0.1736481785774231,0,1],"min":[0,0,0,0.9848077297210693],"type":"VEC4"},{"bufferView":38,"componentType":5126,"count":4,"max":[3.119999885559082],"min":[0],"type":"SCALAR"},{"bufferView":39,"componentType":5126,"count":4,"max":[0,0.1736481785774231,0,1],"min":[0,-0.1736481785774231,0,0.9848077297210693],"type":"VEC4"},{"bufferView":40,"componentType":5126,"count":4,"max":[3.119999885559082],"min":[0],"type":"SCALAR"},{"bufferView":41,"componentType":5126,"count":4,"max":[0,0.1736481785774231,0,1],"min":[0,-0.1736481785774231,0,0.9848077297210693],"type":"VEC4"},{"bufferView":42,"componentType":5126,"count":1,"max":[0],"min":[0],"type":"SCALAR"},{"bufferView":43,"componentType":5126,"count":1,"max":[0,0,0],"min":[0,0,0],"type":"VEC3"},{"bufferView":44,"componentType":5126,"count":11,"max":[5.199999809265137],"min":[0],"type":"SCALAR"},{"bufferView":45,"componentType":5126,"count":11,"max":[0,0.1875,0],"min":[0,0,0],"type":"VEC3"},{"bufferView":46,"componentType":5126,"count":11,"max":[5.199999809265137],"min":[0],"type":"SCALAR"},{"bufferView":47,"componentType":5126,"count":11,"max":[-0.2798290252685547,0,0,0.9600498676300049],"min":[-0.44228869676589966,0,0,0.8968727588653564],"type":"VEC4"},{"bufferView":48,"componentType":5126,"count":5,"max":[4.679999828338623],"min":[0.5199999809265137],"type":"SCALAR"},{"bufferView":49,"componentType":5126,"count":5,"max":[0.125,1.068750023841858,-0.03125],"min":[0.125,1.068750023841858,-0.03125],"type":"VEC3"},{"bufferView":50,"componentType":5126,"count":2,"max":[3.640000104904175],"min":[0],"type":"SCALAR"},{"bufferView":51,"componentType":5126,"count":2,"max":[0,0.19509032368659973,0,0.9807852506637573],"min":[0,0.19509032368659973,0,0.9807852506637573],"type":"VEC4"},{"bufferView":52,"componentType":5126,"count":2,"max":[3.640000104904175],"min":[0],"type":"SCALAR"},{"bufferView":53,"componentType":5126,"count":2,"max":[0,-0.19509032368659973,0,0.9807852506637573],"min":[0,-0.19509032368659973,0,0.9807852506637573],"type":"VEC4"},{"bufferView":54,"componentType":5126,"count":5,"max":[2.0799999237060547],"min":[0],"type":"SCALAR"},{"bufferView":55,"componentType":5126,"count":5,"max":[-0.25,1.1875,-0.8125],"min":[-0.25,1.1875,-10.567500114440918],"type":"VEC3"},{"bufferView":56,"componentType":5126,"count":1,"max":[0],"min":[0],"type":"SCALAR"},{"bufferView":57,"componentType":5126,"count":1,"max":[0.5,0.5,0.5],"min":[0.5,0.5,0.5],"type":"VEC3"}],"materials":[{"pbrMetallicRoughness":{"metallicFactor":0,"roughnessFactor":1,"baseColorTexture":{"index":0}},"alphaMode":"MASK","alphaCutoff":0.05,"doubleSided":true,"name":"witherBoss.png"}],"textures":[{"sampler":0,"source":0,"name":"witherBoss.png"}],"samplers":[{"magFilter":9728,"minFilter":9728,"wrapS":33071,"wrapT":33071}],"images":[{"mimeType":"image/png","uri":"data:image/png;base64,"}],"meshes":[{"primitives":[{"mode":4,"attributes":{"POSITION":0,"NORMAL":1,"TEXCOORD_0":2},"material":0}]},{"primitives":[{"mode":4,"attributes":{"POSITION":3,"NORMAL":4,"TEXCOORD_0":5},"material":0}]},{"primitives":[{"mode":4,"attributes":{"POSITION":6,"NORMAL":7,"TEXCOORD_0":8},"material":0}]},{"primitives":[{"mode":4,"attributes":{"POSITION":9,"NORMAL":10,"TEXCOORD_0":11},"material":0}]},{"primitives":[{"mode":4,"attributes":{"POSITION":12,"NORMAL":13,"TEXCOORD_0":14},"material":0}]},{"primitives":[{"mode":4,"attributes":{"POSITION":15,"NORMAL":16,"TEXCOORD_0":17},"material":0}]},{"primitives":[{"mode":4,"attributes":{"POSITION":18,"NORMAL":19,"TEXCOORD_0":20},"material":0}]},{"primitives":[{"mode":4,"attributes":{"POSITION":21,"NORMAL":22,"TEXCOORD_0":23},"material":0}]},{"primitives":[{"mode":4,"attributes":{"POSITION":24,"NORMAL":25,"TEXCOORD_0":26},"material":0}]},{"primitives":[{"mode":4,"attributes":{"POSITION":27,"NORMAL":28,"TEXCOORD_0":29},"material":0}]}],"animations":[{"name":"animation.witherBoss.new","samplers":[{"input":30,"output":31,"interpolation":"LINEAR"},{"input":32,"output":33,"interpolation":"LINEAR"},{"input":34,"output":35,"interpolation":"LINEAR"},{"input":36,"output":37,"interpolation":"LINEAR"},{"input":38,"output":39,"interpolation":"LINEAR"},{"input":40,"output":41,"interpolation":"LINEAR"},{"input":42,"output":43,"interpolation":"LINEAR"}],"channels":[{"sampler":0,"target":{"node":16,"path":"translation"}},{"sampler":1,"target":{"node":9,"path":"rotation"}},{"sampler":2,"target":{"node":9,"path":"translation"}},{"sampler":3,"target":{"node":11,"path":"rotation"}},{"sampler":4,"target":{"node":13,"path":"rotation"}},{"sampler":5,"target":{"node":15,"path":"rotation"}},{"sampler":6,"target":{"node":1,"path":"scale"}}]},{"name":"animation.witherBoss.shoot","samplers":[{"input":44,"output":45,"interpolation":"LINEAR"},{"input":46,"output":47,"interpolation":"LINEAR"},{"input":48,"output":49,"interpolation":"LINEAR"},{"input":50,"output":51,"interpolation":"LINEAR"},{"input":52,"output":53,"interpolation":"LINEAR"},{"input":54,"output":55,"interpolation":"LINEAR"},{"input":56,"output":57,"interpolation":"LINEAR"}],"channels":[{"sampler":0,"target":{"node":16,"path":"translation"}},{"sampler":1,"target":{"node":9,"path":"rotation"}},{"sampler":2,"target":{"node":9,"path":"translation"}},{"sampler":3,"target":{"node":13,"path":"rotation"}},{"sampler":4,"target":{"node":15,"path":"rotation"}},{"sampler":5,"target":{"node":1,"path":"translation"}},{"sampler":6,"target":{"node":1,"path":"scale"}}]}]}